# xmcd
#
# Track frame offsets:
#	150
#	26404
#	44978
#	67899
#	89677
#	108392
#	128143
#	148449
#	172164
#	190662
#	215859
#	234059
#
# Disc length: 3383 seconds
#
# Revision: 1953656692
# Processed by: cddbd v1.5.2PL0 Copyright (c) Steve Scherf et al.
# Submitted via: EZCDAudioConverter 8.0.2.1
#
DISCID=b70d350c
DTITLE=Đan Trường - Vol 25. Tuyết Mùa Hè
DYEAR=2011
DGENRE=World Pop
TTITLE0=Tuyết Mùa Hè
TTITLE1=Trốn chạy (Go Away)
TTITLE2=Hạnh phúc còn lại
TTITLE3=Vô hình
TTITLE4=Giọt buồn (Chắc có lẽ)
TTITLE5=Người quay bước
TTITLE6=Hoa khóc (Cứ ngỡ rằng)
TTITLE7=Yêu kiếp này, ở kiếp sau
TTITLE8=Chơi vơi
TTITLE9=Còn mãi tiếng hát tôi
TTITLE10=Có bao giờ
TTITLE11=Cắn môi tình còn đau
EXTD=
EXTT0=
EXTT1=
EXTT2=
EXTT3=
EXTT4=
EXTT5=
EXTT6=
EXTT7=
EXTT8=
EXTT9=
EXTT10=
EXTT11=
PLAYORDER=
